<?xml version="1.0" encoding="utf-8"?>
<!-- Generator: Adobe Illustrator 23.0.5, SVG Export Plug-In . SVG Version: 6.00 Build 0)  -->
<svg version="1.1" id="Capa_1" xmlns="http://www.w3.org/2000/svg" xmlns:xlink="http://www.w3.org/1999/xlink" x="0px" y="0px"
	 viewBox="0 0 500 500" style="enable-background:new 0 0 500 500;" xml:space="preserve">
<style type="text/css">
	.st0{fill:#010000;}
	.st1{font-family:'Roboto-Light';}
	.st2{font-size:97.6225px;}
</style>
<g>
	<path d="M222.43,106.41v67.48h-5.22c-6.31-18.44-15.76-32.47-28.37-42.07c-12.61-9.6-26.4-14.4-41.36-14.4
		c-14.31,0-26.21,4.02-35.71,12.07c-9.51,8.05-16.23,19.27-20.19,33.67c-3.95,14.4-6.28,24.97-6.28,40.12
		c0,18.35,1.81,29.7,6.14,43.53c4.33,13.83,11.31,24,20.96,30.49c9.65,6.49,21.1,9.74,34.37,9.74c4.61,0,9.34-0.49,14.19-1.48
		c4.85-0.99,9.81-2.42,14.89-4.31l0.35-52.27c0-7.53-0.52-19.59-1.55-21.8c-1.04-2.21-3.18-4.21-6.42-6
		c-3.25-1.79-7.18-2.68-11.79-2.68h-4.94v-5.27h93.03v12.46c-7.06,0.47-11.98,1.44-14.75,2.89c-2.78,1.46-4.92,3.88-6.42,7.27
		c-0.85,1.79-1.27,6.16-1.27,13.13l-0.35,52.27c-12.23,5.46-24.96,9.58-38.18,12.35c-0.86,0.18-1.73,0.36-2.59,0.52
		c-12.42,2.43-25.27,3.64-38.56,3.64c-18.16,0-33.24-2.47-45.24-7.41c-12-4.94-22.59-11.43-31.76-19.48
		c-9.18-8.05-16.35-17.1-21.53-27.17c-6.59-12.99-9.53-22.78-9.53-38.87c0-28.8,10.47-48.92,30.7-68.78
		c20.23-19.86,45.69-29.79,76.37-29.79c9.5,0,18.07,0.75,25.69,2.26c4.14,0.75,10.85,2.89,20.12,6.42
		c9.27,3.53,14.75,5.29,16.45,5.29c2.63,0,5.08-0.96,7.34-2.89c2.26-1.93,4.33-5.58,6.21-10.94H222.43z M196.15,292.98
		c0,0-10.51-0.11-17.01,1.49c-6.51,1.6,4.46-12.44,4.46-12.44L196.15,292.98z"/>
	<path d="M174.5,281.74c0.3-0.44,0.43-2.22,0.43-2.22l0.5-6.12l0.13-60.56c0,0-0.12-6.22-2.69-8.19c-1.4-1.61-4.41-3.29-6.71-4.43
		c-1.63-0.81-5.98-1.6-7.86-1.66c-1.88-0.05-6.82-0.05-6.82-0.05v-5.27L289.33,193l-0.09-63.17c0,0,0.52-7.91-2.3-10.84
		c-2.82-2.93-2.86-3.56-7.07-5.48c-4.21-1.91-17.5-1.98-17.5-1.98v-5.22l58.02-0.04l2.16,190.03l-9.23,1.48l-50.95-0.04v-5.22
		l4.61-0.07c0,0,4.3-0.02,7.37-0.6c3.07-0.58,3.01-0.08,6.54-1.81c3.53-1.73,4.87-3.74,4.87-3.74s2.48-3.23,2.72-5.23
		s0.95-49.35,0.95-49.35v-25.99l-44.9-0.03c0,0-8.96-0.35-16.05,3.69s-6.47,17.86-6.47,17.86l-0.22,45.86c0,0,0.31,9.01,2.13,11.35
		s3.38,4.77,9.05,6.76c5.67,1.99,11.55,1.3,11.55,1.3h4.3v5.22l-100.08-0.05l1.34-9.36l6.07-1.94l3.94-0.65l7.33-1.73
		C170.36,283.19,174.2,282.18,174.5,281.74z"/>
	<path d="M334.3,205.42v58.71c0,10.35,0.63,16.87,1.91,19.55c1.27,2.68,3.5,4.82,6.7,6.42c3.2,1.6,9.18,2.4,17.93,2.4v5.22h-97.97
		v-5.22c8.84,0,14.84-0.82,18-2.47c3.15-1.65,5.36-3.79,6.63-6.42c1.27-2.63,1.91-9.13,1.91-24.55V134.84
		c0-5.28-0.64-11.8-1.91-14.48c-1.27-2.68-3.51-4.82-6.71-6.42c-3.2-1.6-9.18-2.4-17.93-2.4v-5.22h88.93
		c23.15,0,40.09,1.6,50.82,4.8c10.73,3.2,19.48,9.11,26.26,17.72c6.78,8.61,10.16,18.7,10.16,30.28c0,14.12-4.35,22.75-14.51,31.98
		c-6.49,5.84-16.31,11.42-27.98,14.34l46.02,66.62c6.02,8.38,10.3,13.6,12.85,15.67c3.86,2.92,8.33,4.52,13.41,4.8v5.22h-60.28
		l-61.69-92.31H334.3z M334.3,116.61l0.03,76.39h8.05c13.08,0,22.87-1.2,29.36-3.6c6.49-2.4,13.37-5.49,18.04-11.08
		c5.32-6.38,7.11-13.39,7.02-23.52c-0.12-14.59-4.88-19.83-11.7-26.8c-6.82-6.96-20.54-11.39-35.69-11.39H334.3z"/>
</g>
<text transform="matrix(1 0 0 1 31.1682 393.7324)" class="st0 st1 st2">ABOGADO</text>
</svg>
